#!OML:ASF F:\VICON\USERDATA\INSTALL\rory3\rory3.ASF
:FULLY-SPECIFIED
:DEGREES
932
root 0.471254 17.6217 5.32868 -179.918 7.19123 541.786
lowerback 20.8022 -2.54579 -0.772736
upperback 1.66352 -2.20084 6.24639
thorax -9.55446 -0.581271 7.97863
lowerneck -11.3973 2.87055 0.280636
upperneck 19.2055 6.67291 -8.92707
head 8.16667 2.67976 -2.26268
rclavicle -1.31198e-014 1.27222e-013
rhumerus -65.6913 -29.6863 -44.8585
rradius 88.3247
rwrist -54.071
rhand -11.3442 -2.62938
rfingers 7.12502
rthumb 14.6889 -32.089
lclavicle -1.31198e-014 1.27222e-013
lhumerus -51.1498 6.12829 81.425
lradius 47.1336
lwrist 8.26184
lhand -10.0681 51.0135
lfingers 7.12502
lthumb 15.9181 80.3793
rfemur -10.4634 5.05341 25.9642
rtibia 39.3373
rfoot -25.5838 -8.22949
rtoes 4.84665
lfemur -19.23 0.454471 -21.0274
ltibia 54.9035
lfoot -13.7023 2.49115
ltoes -12.3578
933
root 0.485493 17.6175 5.29266 -179.866 7.49845 542.067
lowerback 20.7814 -2.52865 -0.536145
upperback 1.8893 -2.11904 6.18536
thorax -9.31477 -0.557122 7.72987
lowerneck -11.4928 2.9313 0.583409
upperneck 18.8782 6.65263 -9.05977
head 8.08671 2.67233 -2.35862
rclavicle 4.77083e-015 5.56597e-014
rhumerus -65.5676 -29.7589 -44.879
rradius 90.431
rwrist -52.7928
rhand -11.4161 -2.28381
rfingers 7.12502
rthumb 14.6196 -31.7485
lclavicle 4.77083e-015 5.56597e-014
lhumerus -50.954 6.18987 81.1749
lradius 46.6187
lwrist 7.85501
lhand -10.5994 49.9888
lfingers 7.12502
lthumb 15.4064 79.3947
rfemur -10.2343 5.38297 26.3626
rtibia 39.1022
rfoot -25.6493 -8.44686
rtoes 4.99193
lfemur -20.2597 0.989117 -20.6003
ltibia 56.3938
lfoot -13.0026 2.66581
ltoes -13.5242
934
root 0.498262 17.6166 5.25008 -179.874 7.66109 542.068
lowerback 21.0168 -2.50059 -0.771098
upperback 1.8824 -2.11541 6.25809
thorax -9.43864 -0.536877 7.967
lowerneck -11.4506 2.92558 0.394778
upperneck 18.9554 6.6649 -8.92179
head 8.095 2.67809 -2.28066
rclavicle 4.25399e-014 -1.27222e-014
rhumerus -65.3883 -29.2308 -44.574
rradius 92.3895
rwrist -51.7918
rhand -10.9833 -1.84289
rfingers 7.12502
rthumb 15.0365 -31.2769
lclavicle 4.25399e-014 -1.27222e-014
lhumerus -51.1161 6.56191 81.0617
lradius 46.2687
lwrist 7.73589
lhand -10.7813 49.6967
lfingers 7.12502
lthumb 15.2312 79.116
rfemur -9.89028 5.3916 26.4085
rtibia 38.7924
rfoot -25.7176 -8.49412
rtoes 5.49837
lfemur -21.1533 1.46354 -20.5156
ltibia 57.7759
lfoot -12.5728 3.07511
ltoes -15.456
935
root 0.505721 17.6203 5.1905 -179.903 7.86437 542.184
lowerback 20.8785 -2.54735 -0.674782
upperback 2.06494 -2.15817 6.21276
thorax -9.15933 -0.57003 7.84799
lowerneck -11.4396 2.95611 0.399756
upperneck 18.92 6.66316 -8.80312
head 8.07632 2.68465 -2.24298
rclavicle -8.18993e-014 7.95139e-014
rhumerus -65.0514 -29.1667 -44.3585
rradius 94.1648
rwrist -50.8548
rhand -10.6104 -1.81369
rfingers 7.12502
rthumb 15.3958 -31.2204
lclavicle -8.18993e-014 7.95139e-014
lhumerus -51.1019 6.65219 80.8546
lradius 46.3003
lwrist 8.40576
lhand -10.825 50.288
lfingers 7.12502
lthumb 15.1891 79.7104
rfemur -9.4083 5.32548 26.5376
rtibia 38.4301
rfoot -25.7102 -8.51468
rtoes 5.21463
lfemur -21.886 1.85958 -20.3463
ltibia 59.0146
lfoot -12.7381 3.34695
ltoes -16.344
936
root 0.510885 17.624 5.12346 -179.965 8.13358 542.511
lowerback 20.7758 -2.60554 -0.339661
upperback 2.34891 -2.14329 6.18239
thorax -8.80547 -0.578715 7.58612
lowerneck -11.9112 2.99639 0.422426
upperneck 18.9822 6.68367 -8.71161
head 8.18149 2.67753 -2.2083
rclavicle 3.33958e-014 1.74931e-014
rhumerus -64.6389 -29.3851 -44.1956
rradius 96.2193
rwrist -50.5071
rhand -10.4713 -2.06574
rfingers 7.12502
rthumb 15.5298 -31.4621
lclavicle 3.33958e-014 1.74931e-014
lhumerus -50.8946 6.54364 80.7208
lradius 46.2292
lwrist 8.99384
lhand -10.3443 50.9107
lfingers 7.12502
lthumb 15.652 80.2975
rfemur -8.81061 5.28917 26.8801
rtibia 38.0189
rfoot -25.8337 -8.37379
rtoes 5.20572
lfemur -22.5619 2.33588 -19.9319
ltibia 60.112
lfoot -13.2429 3.31287
ltoes -17.1979
937
root 0.517029 17.62 5.0669 -179.885 8.42103 542.802
lowerback 20.7153 -2.61024 -0.0709115
upperback 2.44611 -2.08311 6.17304
thorax -8.68472 -0.559409 7.39122
lowerneck -10.6916 2.83474 0.801062
upperneck 17.6131 6.27053 -9.18281
head 7.51109 2.53063 -2.48568
rclavicle 3.69739e-014 5.08889e-014
rhumerus -64.4784 -29.496 -43.8538
rradius 98.527
rwrist -50.4954
rhand -9.93695 -1.46849
rfingers 7.12502
rthumb 16.0444 -30.8242
lclavicle 3.69739e-014 5.08889e-014
lhumerus -50.8108 6.51302 80.5817
lradius 45.8102
lwrist 8.88997
lhand -9.88397 51.3512
lfingers 7.12502
lthumb 16.0954 80.7028
rfemur -8.4024 5.38633 27.1981
rtibia 37.5934
rfoot -25.8476 -8.38016
rtoes 5.23866
lfemur -23.4344 2.84307 -19.5422
ltibia 61.0965
lfoot -13.6928 3.15442
ltoes -16.65
938
root 0.524896 17.6256 5.02029 -179.718 8.69036 542.869
lowerback 20.9119 -2.5201 -0.0794039
upperback 2.26305 -1.96952 6.1749
thorax -9.00868 -0.499901 7.39261
lowerneck -11.4074 3.1036 0.760733
upperneck 18.8175 6.79916 -8.93795
head 8.05851 2.75959 -2.33414
rclavicle -1.35174e-014 -2.54444e-014
rhumerus -64.3946 -29.5704 -43.2444
rradius 100.85
rwrist -50.1203
rhand -9.58779 -1.10724
rfingers 7.12502
rthumb 16.3806 -30.4355
lclavicle -1.35174e-014 -2.54444e-014
lhumerus -51.1141 6.49349 80.5696
lradius 45.489
lwrist 8.74356
lhand -9.99418 51.2927
lfingers 7.12502
lthumb 15.9893 80.6528
rfemur -8.1732 5.54602 27.2681
rtibia 37.1827
rfoot -25.7508 -8.58093
rtoes 5.01669
lfemur -24.4528 3.2092 -19.4071
ltibia 61.9103
lfoot -13.9867 3.2181
ltoes -17.3218
